<svg xmlns="http://www.w3.org/2000/svg" xmlns:xlink="http://www.w3.org/1999/xlink" width="100" height="100" viewBox="0 0 100 100"><path fill="#3DB39E" d="M50 0c27.614 0 50 22.386 50 50s-22.386 50-50 50-50-22.386-50-50 22.386-50 50-50z"/><defs><path id="a" d="M50 0c27.614 0 50 22.386 50 50s-22.386 50-50 50-50-22.386-50-50 22.386-50 50-50z"/></defs><clipPath id="b"><use xlink:href="#a" overflow="visible"/></clipPath><path fill="#E4E7E7" d="M-44.824 49.552l110.808 55.439 7.148-3.576-110.807-55.44-7.149 3.577zm118.247-24.394l-17.872-8.941-7.148 3.576 17.872 8.942 7.148-3.577zm-12.51 6.26l-17.872-8.942-7.149 3.577 17.872 8.941 7.149-3.576zm-12.511 6.259l-17.872-8.942-7.148 3.576 17.872 8.942 7.148-3.576zm-12.51 6.26l-17.872-8.943-7.148 3.577 17.872 8.941 7.148-3.575zm-12.51 6.258l-17.872-8.941-7.15 3.576 17.872 8.942 7.15-3.577zm-12.511 6.259l-17.872-8.941-7.149 3.576 17.872 8.942 7.149-3.577z" clip-path="url(#b)"/><path fill="#349886" d="M60.383 71.931c5.98-3.357 13.493-1.589 14.434-.005.924 1.556-1.241 8.796-7.222 12.154-5.979 3.357-13.491 1.59-14.433.005-.778-1.311 1.241-8.797 7.221-12.154z"/><path fill="#E77944" d="M53.021 14.255c15.694-15.605 40.495-16.244 44.755-12.008 4.186 4.162 3.616 28.896-12.077 44.502s-40.49 16.248-44.754 12.008c-3.525-3.505-3.617-28.897 12.076-44.502z"/><path fill="#CDCECD" d="M58.588 38.534l18.981-18.955c.788-.787 2.065-.787 2.854 0 .788.788.788 2.063 0 2.852l-18.981 18.955c-.788.787-2.066.787-2.854 0s-.788-2.065 0-2.852z"/><path fill="#EFF1F1" d="M60.315 34.287c-.373-.373-.978-.373-1.351 0l-.676.675c-.373.374-.373.979 0 1.352l5.403 5.402c.372.373.978.373 1.351 0l.675-.676c.373-.373.373-.978 0-1.351l-5.402-5.402zm4.99-5.013c-.374-.373-.981-.373-1.355 0l-.679.676c-.374.372-.374.978 0 1.351l5.424 5.403c.375.373.981.373 1.356 0l.678-.676c.375-.373.375-.978 0-1.351l-5.424-5.403zm5.003-4.98c-.373-.373-.978-.373-1.351 0l-.676.675c-.373.373-.373.978 0 1.351l5.404 5.403c.373.372.978.372 1.351 0l.676-.676c.372-.373.372-.978 0-1.351l-5.404-5.402zm10.416.391l-5.404-5.405c-.373-.373-.978-.373-1.351 0l-.675.676c-.373.373-.373.978 0 1.351l5.402 5.403c.373.374.978.374 1.351 0l.676-.675c.373-.373.373-.977.001-1.35z"/><path fill="#C5673A" d="M50.945 60.757c-3.525-3.505-3.617-28.896 12.076-44.502 10.369-10.31 24.709-14.084 34.478-14.239-4.931-3.972-29.08-3.071-44.478 12.239-15.693 15.605-15.601 40.997-12.076 44.502 1.447 1.438 5.262 2.312 10.279 2.233l-.279-.233z"/><g fill="#EFF1F1"><path d="M91.418 9.565c-3.132-3.135-5.875-6.643-7.803-9.31-2.668.275-5.548.794-8.515 1.601.638 1.012 5.008 7.819 10.608 13.425 4.567 4.572 9.941 8.335 12.324 9.92.842-2.979 1.383-5.874 1.68-8.562-2.507-1.868-5.544-4.322-8.294-7.074zM39.144 46.268c2.53 1.874 5.624 4.356 8.421 7.151 2.445 2.443 4.652 5.111 6.426 7.436 2.72-.216 5.689-.692 8.769-1.478-1.776-2.618-5.288-7.483-9.479-11.669-4.894-4.889-10.707-8.842-12.78-10.193-.734 3.086-1.165 6.052-1.357 8.753z"/></g><path fill="#EFF1F1" d="M40.501 37.515c-.179.751-.338 1.495-.482 2.23l-.035.188c-.128.667-.242 1.325-.343 1.974l-.034.22c-.215 1.43-.368 2.815-.462 4.135v.006c2.53 1.874 5.624 4.356 8.421 7.151.56.56 1.103 1.132 1.635 1.708-.304-2.908-.235-6.662.38-10.825-3.822-3.266-7.516-5.768-9.08-6.787z"/><path fill="#CCCDCD" d="M40.501 37.515c-.179.751-.338 1.495-.482 2.23l-.035.188c-.128.667-.242 1.325-.343 1.974l-.034.22c-.215 1.43-.368 2.815-.462 4.135v.006c2.53 1.874 5.624 4.356 8.421 7.151.56.56 1.103 1.132 1.635 1.708-.304-2.908-.235-6.662.38-10.825-3.822-3.266-7.516-5.768-9.08-6.787zM78.119 6.267c2.694-1.142 5.396-2.015 8.023-2.675-.944-1.189-1.795-2.324-2.527-3.336-.649.067-1.312.149-1.984.246l-.109.016c-2.038.296-4.174.732-6.358 1.323l-.062.017c.293.467 1.385 2.168 3.017 4.409z"/></svg>