<svg xmlns="http://www.w3.org/2000/svg" width="100" height="100" viewBox="0 0 100 100"><path fill="#324D5B" d="M50 0c-27.614 0-50 22.386-50 50s22.386 50 50 50 50-22.387 50-50-22.386-50-50-50z"/><path fill="#2B424D" d="M19 82.998v-56l-18.812 18.813c-.115 1.382-.188 2.776-.188 4.189 0 12.649 4.707 24.192 12.452 32.999h6.548z"/><path fill="#DA9C44" d="M89 81.272v-24.272l-39.025-19-38.975 19v24.272c9.164 11.415 23.224 18.728 39 18.728 15.775 0 29.836-7.313 39-18.728z"/><path fill="#F3F3F3" d="M19 27h63c1.104 0 2 .895 2 2v46c0 1.104-.896 2-2 2h-63c-1.104 0-2-.896-2-2v-46c0-1.105.896-2 2-2z"/><path fill="#26A6D1" d="M38 32h7l4-5h-7l-4 5zm30-5l-4 5h7l4-5h-7zm-51 2v3h3l4-5h-5c-1.104 0-2 .895-2 2z"/><path fill="#E2574C" d="M51 32h7l4-5h-7l-4 5zm-26 0h7l4-5h-7l-4 5zm57-5h-1l-4 5h7v-3c0-1.105-.896-2-2-2z"/><path fill="#DFE1E2" d="M73.5 47h-17c-.828 0-1.5.671-1.5 1.5s.672 1.5 1.5 1.5h17c.828 0 1.5-.671 1.5-1.5s-.672-1.5-1.5-1.5zm-3 6h-14c-.828 0-1.5.672-1.5 1.499 0 .829.672 1.501 1.5 1.501h14c.828 0 1.5-.672 1.5-1.501 0-.827-.672-1.499-1.5-1.499zm-31.483-4.04l.682 3.585-5.699-8.546-8 12c0 1.105 5.148 2 11.5 2s11.5-.895 11.5-2l-7-10-2.983 2.961zm.983-4.961c1.104 0 2-.896 2-2s-.896-2-2-2-2 .896-2 2 .896 2 2 2zm16.5.001h17c.828 0 1.5-.671 1.5-1.5s-.672-1.5-1.5-1.5h-17c-.828 0-1.5.671-1.5 1.5s.672 1.5 1.5 1.5z"/><path fill="#F4B459" d="M89 81.272v-24.272l-39.025 18.999-38.975-18.999v24.272c9.164 11.415 23.224 18.728 39 18.728 15.775 0 29.836-7.313 39-18.728z"/><path fill="#F6C37A" d="M89 57l-68.409 33.427c8.25 6.012 18.403 9.569 29.392 9.573h.034c15.769-.006 29.823-7.318 38.983-18.728v-24.272z"/></svg>